<svg id="Capa_1" enable-background="new 0 0 492.007 492.007" height="512" viewBox="0 0 492.007 492.007" width="512" xmlns="http://www.w3.org/2000/svg"><path d="m235.234 251.311c-11.046-24.669-33.379-39.994-58.284-39.994h-28.54l-50.731-80.323c-1.098-1.742-3.014-2.799-5.073-2.8h-12.054c-3.314 0-6 2.687-6 6 0 .409.042.816.125 1.217l15.717 75.9h-49.822l-16.776-54.842c-.771-2.522-3.1-4.245-5.737-4.245h-12.049c-3.314 0-6 2.686-6 6v64.258c0 .184.011.366.027.546-.165 2.221.227 4.447 1.14 6.478 13.156 29.381 39.73 47.633 69.353 47.633h149.611c5.59-.06 10.766-2.958 13.738-7.693 3.464-5.435 3.973-12.245 1.355-18.135zm-147.312-111.113h1.372l44.916 71.119h-31.562zm-74.3 24.026 14.405 47.093h-15.985-.032v-47.093zm210.19 98.7c-.765 1.316-2.147 2.152-3.668 2.218h-149.614c-24.828 0-47.2-15.533-58.4-40.537-.189-.417-.152-.902.1-1.285h164.72c11.187.044 22.019 3.927 30.686 11h-13.855c-3.314 0-6 2.686-6 6s2.686 6 6 6h24.943c2.15 3.124 4.01 6.438 5.557 9.9.974 2.172.798 4.687-.471 6.701z"/><path d="m53.528 232.482c-4.328 0-7.836 3.508-7.836 7.836s3.508 7.836 7.836 7.836 7.836-3.508 7.836-7.836v-.001c-.005-4.325-3.511-7.83-7.836-7.835z"/><path d="m81.066 232.482c-4.328 0-7.836 3.508-7.836 7.836s3.508 7.836 7.836 7.836 7.836-3.508 7.836-7.836v-.001c-.005-4.325-3.511-7.83-7.836-7.835z"/><path d="m108.604 232.482c-4.328 0-7.836 3.508-7.836 7.836s3.508 7.836 7.836 7.836 7.836-3.508 7.836-7.836v-.001c-.005-4.325-3.511-7.83-7.836-7.835z"/><path d="m136.143 232.482c-4.328 0-7.836 3.508-7.836 7.836s3.508 7.836 7.836 7.836 7.836-3.508 7.836-7.836v-.001c-.005-4.325-3.511-7.83-7.836-7.835z"/><path d="m163.681 232.482c-4.328 0-7.836 3.508-7.836 7.836s3.508 7.836 7.836 7.836 7.836-3.508 7.836-7.836v-.001c-.006-4.325-3.511-7.83-7.836-7.835z"/><path d="m108.604 300.698c-17.428-.001-31.557 14.128-31.558 31.556s14.128 31.557 31.556 31.558 31.557-14.128 31.558-31.556v-.001c-.02-17.42-14.136-31.536-31.556-31.557zm0 51.114c-10.801.001-19.557-8.755-19.558-19.556s8.755-19.557 19.556-19.558 19.557 8.755 19.558 19.556v.001c-.012 10.796-8.761 19.545-19.556 19.557z"/><path d="m440.01 300.698c-17.428 0-31.557 14.129-31.557 31.557s14.129 31.557 31.557 31.557 31.557-14.129 31.557-31.557c-.02-17.42-14.137-31.537-31.557-31.557zm0 51.114c-10.801 0-19.557-8.756-19.557-19.557s8.756-19.557 19.557-19.557 19.557 8.756 19.557 19.557c-.012 10.796-8.761 19.545-19.557 19.557z"/><path d="m221.052 326.255h-66.442c-3.314 0-6 2.686-6 6s2.686 6 6 6h66.446c3.314 0 6-2.686 6-6s-2.686-6-6-6z"/><path d="m392.8 326.255c-3.32-.006-6.016 2.68-6.022 6s2.68 6.016 6 6.022 6.016-2.68 6.022-6c.003-1.598-.631-3.132-1.761-4.262-1.125-1.124-2.649-1.757-4.239-1.76z"/><path d="m476.249 185.999c-19.952-20.015-52.353-20.066-72.368-.114-.038.038-.076.076-.114.114-9.231 9.281-14.79 21.59-15.65 34.652-.462 7.177.591 14.372 3.09 21.116 2.616 6.975 6.623 13.346 11.779 18.723l32.648 34.777c2.268 2.416 6.065 2.535 8.481.267.092-.086.181-.175.267-.267l32.649-34.777c5.156-5.377 9.164-11.747 11.779-18.723 2.499-6.744 3.552-13.938 3.091-21.116-.86-13.062-6.42-25.371-15.652-34.652zm1.286 51.654c-2.061 5.451-5.209 10.427-9.252 14.624l-28.273 30.118-28.274-30.118c-4.043-4.198-7.191-9.173-9.253-14.624-1.924-5.173-2.739-10.692-2.391-16.2 1.266-18.924 16.543-38.5 39.918-38.5s38.653 19.574 39.919 38.5c.346 5.508-.469 11.028-2.394 16.2z"/><path d="m440.01 194.256c-14.18 0-25.715 11.773-25.715 26.244s11.533 26.244 25.715 26.244 25.716-11.773 25.716-26.244-11.538-26.244-25.716-26.244zm0 40.488c-7.867.298-14.486-5.837-14.784-13.704s5.837-14.486 13.704-14.784 14.486 5.837 14.784 13.704c.007.182.01.363.01.545.133 7.715-6 14.083-13.714 14.239z"/><path d="m274.518 326.255h-32.708c-3.314 0-6 2.686-6 6s2.686 6 6 6h32.712c3.314 0 6-2.686 6-6s-2.686-6-6-6z"/><path d="m317.761 326.255h-22.489c-3.314 0-6 2.686-6 6s2.686 6 6 6h22.489c3.314 0 6-2.686 6-6s-2.686-6-6-6z"/><path d="m371.539 326.255c-3.309-.001-5.992 2.682-5.993 5.991s2.682 5.992 5.991 5.993 5.992-2.682 5.993-5.991c0-1.587-.629-3.109-1.75-4.233-1.128-1.121-2.651-1.753-4.241-1.76z"/><path d="m350.781 326.255h-12.266c-3.314 0-6 2.686-6 6s2.686 6 6 6h12.266c3.314 0 6-2.686 6-6s-2.686-6-6-6z"/><path d="m108.604 321.144c-6.136 0-11.111 4.975-11.111 11.111s4.975 11.111 11.111 11.111 11.111-4.975 11.111-11.111c-.007-6.133-4.978-11.104-11.111-11.111zm0 12c-.491.001-.889-.397-.89-.888s.397-.889.888-.89.889.397.89.888v.001c-.001.491-.398.888-.888.889z"/></svg>