<svg id="svg" version="1.1" xmlns="http://www.w3.org/2000/svg" xmlns:xlink="http://www.w3.org/1999/xlink" width="400" height="186.66666666666669" viewBox="0, 0, 400,186.66666666666669"><g id="svgg"><path id="path0" d="M121.040 40.253 C 114.799 41.393,111.485 45.109,111.485 50.966 C 111.485 55.232,113.002 57.657,116.807 59.472 C 118.183 60.128,118.442 60.206,123.589 61.530 C 129.775 63.120,131.628 64.746,131.428 68.413 C 131.071 74.967,122.134 77.020,111.811 72.919 C 111.512 72.800,111.485 72.966,111.485 74.934 L 111.485 77.078 112.372 77.452 C 117.893 79.777,125.899 79.708,130.830 77.294 C 138.172 73.698,138.421 62.855,131.243 59.328 C 129.965 58.700,128.786 58.330,122.835 56.690 C 117.842 55.313,116.433 53.975,116.433 50.607 C 116.433 44.536,123.021 42.487,132.636 45.566 L 134.839 46.271 134.786 44.097 L 134.734 41.923 132.666 41.246 C 129.035 40.057,124.318 39.655,121.040 40.253 M83.473 59.575 L 83.473 78.443 85.761 78.390 L 88.049 78.338 88.097 69.795 L 88.146 61.251 96.080 61.251 L 104.015 61.251 104.015 59.199 L 104.015 57.147 96.125 57.098 L 88.235 57.049 88.186 50.934 L 88.137 44.818 97.109 44.818 L 106.082 44.818 106.029 42.810 L 105.976 40.803 94.725 40.755 L 83.473 40.707 83.473 59.575 M144.538 59.569 L 144.538 78.431 156.489 78.431 L 168.441 78.431 168.441 76.377 L 168.441 74.323 158.824 74.323 L 149.206 74.323 149.206 67.789 L 149.206 61.255 157.283 61.206 L 165.359 61.158 165.412 59.152 L 165.465 57.147 157.383 57.098 L 149.300 57.049 149.300 50.980 L 149.300 44.911 158.410 44.863 L 167.520 44.814 167.467 42.809 L 167.414 40.803 155.976 40.755 L 144.538 40.707 144.538 59.569 M183.567 51.367 C 180.813 52.126,178.174 53.972,176.675 56.187 C 173.041 61.558,173.466 70.869,177.546 75.277 C 180.712 78.697,186.477 80.041,191.859 78.615 C 194.442 77.931,194.398 77.979,194.398 75.884 C 194.398 73.832,194.688 73.985,192.157 74.705 C 184.285 76.943,178.905 73.035,178.905 65.079 C 178.905 56.327,184.069 53.146,193.697 55.970 C 194.349 56.161,194.168 52.415,193.511 52.106 C 191.136 50.990,186.252 50.627,183.567 51.367 M208.777 51.265 C 196.426 54.626,196.286 75.349,208.590 78.733 C 211.478 79.528,215.459 79.156,218.267 77.829 C 227.008 73.699,227.370 57.396,218.828 52.509 C 216.417 51.130,211.508 50.522,208.777 51.265 M241.629 51.418 C 239.938 52.000,238.761 52.723,237.426 54.001 C 236.023 55.344,236.183 55.401,235.760 53.402 C 235.349 51.465,235.381 51.489,233.329 51.578 L 232.026 51.634 231.978 65.033 L 231.930 78.431 234.079 78.431 L 236.228 78.431 236.228 69.029 L 236.228 59.627 236.756 58.898 C 240.069 54.333,246.732 53.294,248.686 57.039 C 249.349 58.308,249.379 58.744,249.479 68.534 L 249.580 78.338 251.774 78.391 L 253.968 78.443 253.968 68.646 C 253.968 56.645,253.803 55.556,251.641 53.332 C 249.476 51.104,245.021 50.252,241.629 51.418 M270.868 51.091 C 265.906 52.234,262.813 55.311,261.222 60.691 C 260.287 63.853,261.095 70.395,262.791 73.385 C 266.254 79.492,275.985 81.120,281.544 76.522 C 288.506 70.763,287.745 56.962,280.223 52.566 C 278.053 51.299,273.253 50.541,270.868 51.091 M302.808 51.379 C 301.153 51.981,299.949 52.746,298.651 54.020 C 298.012 54.648,297.459 55.124,297.422 55.078 C 297.385 55.033,297.203 54.259,297.019 53.359 C 296.633 51.475,296.651 51.489,294.581 51.578 L 293.277 51.634 293.229 65.033 L 293.181 78.431 295.424 78.431 L 297.666 78.431 297.666 68.840 L 297.666 59.250 298.459 58.343 C 303.081 53.061,309.476 53.561,310.534 59.286 C 310.663 59.982,310.738 63.698,310.738 69.409 L 310.738 78.431 312.979 78.431 L 315.219 78.431 315.219 68.857 L 315.219 59.284 315.952 58.398 C 319.861 53.667,325.952 53.453,327.752 57.983 L 328.197 59.104 328.254 68.773 L 328.310 78.443 330.495 78.391 L 332.680 78.338 332.680 68.441 C 332.680 57.367,332.649 57.056,331.341 54.867 C 328.017 49.305,318.665 49.719,314.712 55.602 C 314.316 56.191,314.272 56.165,313.389 54.822 C 311.160 51.431,306.678 49.973,302.808 51.379 M337.897 51.783 C 337.807 52.019,341.021 60.161,347.412 75.887 C 348.251 77.951,348.258 77.801,347.231 80.234 C 346.761 81.348,345.842 83.520,345.190 85.061 C 344.537 86.601,343.668 88.660,343.258 89.636 L 342.513 91.410 344.678 91.463 C 346.284 91.502,346.881 91.454,346.992 91.276 C 347.075 91.144,347.660 89.776,348.293 88.235 C 348.925 86.695,349.553 85.182,349.688 84.874 C 349.823 84.566,350.697 82.465,351.631 80.205 C 352.564 77.946,353.405 75.929,353.499 75.724 C 353.593 75.518,354.014 74.510,354.435 73.483 C 354.856 72.456,355.276 71.447,355.369 71.242 C 355.461 71.036,355.881 70.028,356.303 69.001 C 356.724 67.974,357.144 66.965,357.237 66.760 C 357.330 66.555,357.624 65.840,357.890 65.173 C 358.156 64.505,358.449 63.791,358.542 63.585 C 358.635 63.380,359.056 62.372,359.477 61.345 C 359.898 60.317,360.318 59.309,360.411 59.104 C 360.503 58.898,360.923 57.890,361.345 56.863 C 361.766 55.836,362.186 54.827,362.279 54.622 C 362.738 53.607,363.399 51.904,363.399 51.733 C 363.399 51.511,359.504 51.466,359.180 51.684 C 359.068 51.759,358.703 52.493,358.369 53.315 C 358.035 54.136,357.233 56.111,356.586 57.703 C 355.940 59.295,355.013 61.564,354.527 62.745 C 351.998 68.891,351.023 71.299,350.840 71.849 C 350.616 72.521,350.375 72.627,350.200 72.129 C 350.137 71.949,348.702 68.315,347.012 64.052 C 345.321 59.790,343.563 55.336,343.104 54.155 C 342.646 52.974,342.134 51.902,341.968 51.774 C 341.539 51.443,338.025 51.451,337.897 51.783 M215.360 55.335 C 221.855 58.241,222.185 71.262,215.844 74.476 C 209.330 77.778,203.319 71.981,204.279 63.321 C 205.017 56.658,210.112 52.987,215.360 55.335 M276.764 55.421 C 283.188 58.504,283.407 71.277,277.092 74.478 C 271.123 77.504,265.492 72.943,265.487 65.079 C 265.483 59.458,267.729 55.919,271.989 54.833 C 273.138 54.540,275.548 54.837,276.764 55.421 M57.342 65.467 C 57.020 65.834,55.890 67.452,54.831 69.062 C 53.772 70.672,52.578 72.483,52.177 73.087 C 51.775 73.692,51.068 74.784,50.604 75.515 C 47.135 80.982,44.947 83.667,43.707 83.978 C 43.379 84.060,42.820 83.873,41.746 83.320 C 38.597 81.699,36.093 80.958,35.519 81.478 C 34.424 82.469,33.755 81.638,34.535 80.256 C 35.174 79.124,35.209 78.991,34.874 78.993 C 34.746 78.994,34.346 79.550,33.987 80.229 C 33.601 80.957,33.161 81.528,32.913 81.623 C 32.587 81.748,32.493 81.931,32.493 82.445 C 32.493 82.834,32.263 83.513,31.933 84.098 C 31.625 84.644,31.373 85.189,31.373 85.309 C 31.373 85.712,31.699 85.533,31.914 85.012 C 32.572 83.424,33.987 82.884,33.717 84.324 C 33.540 85.267,36.082 87.775,38.958 89.495 L 39.963 90.097 39.963 91.086 C 39.963 92.656,39.434 93.912,35.223 102.334 C 30.214 112.354,30.340 112.060,30.719 112.859 C 31.163 113.794,33.207 114.745,35.577 115.119 C 36.419 115.252,36.854 114.917,37.775 113.431 C 38.034 113.012,38.569 112.288,38.964 111.823 C 39.359 111.358,40.497 109.978,41.492 108.756 C 46.945 102.063,50.705 97.509,51.181 97.020 L 51.718 96.468 53.263 97.093 C 55.765 98.104,59.261 99.535,59.664 99.714 C 60.090 99.903,62.688 100.964,64.286 101.601 C 65.660 102.149,65.725 101.827,63.075 107.563 C 61.672 110.601,61.675 110.652,63.339 111.465 C 65.846 112.691,65.270 113.198,69.364 106.162 C 70.978 103.389,72.577 100.658,72.917 100.093 C 75.740 95.408,75.757 95.117,73.299 93.490 C 72.216 92.772,72.019 92.843,70.902 94.351 C 70.351 95.096,69.169 96.692,68.276 97.899 C 66.360 100.490,66.737 100.393,64.686 98.819 C 53.738 90.419,54.619 91.295,55.303 89.489 C 55.604 88.697,56.004 87.628,56.193 87.115 C 56.383 86.601,57.682 83.137,59.081 79.417 C 60.480 75.697,61.625 72.598,61.625 72.532 C 61.625 72.465,62.003 71.628,62.465 70.672 C 63.543 68.442,63.548 68.481,61.951 66.925 C 59.428 64.465,58.484 64.167,57.342 65.467 M279.178 86.522 L 277.965 86.928 277.909 88.097 L 277.853 89.266 279.098 88.797 C 281.280 87.976,283.001 88.168,283.586 89.299 C 284.436 90.943,283.165 93.328,279.189 97.549 C 277.763 99.063,277.684 99.192,277.684 99.994 L 277.684 100.840 282.362 100.840 L 287.040 100.840 286.984 99.767 L 286.928 98.693 284.220 98.661 C 282.731 98.644,281.459 98.623,281.393 98.615 C 281.326 98.606,281.733 98.116,282.295 97.526 C 285.353 94.317,286.321 92.681,286.428 90.550 C 286.608 86.931,283.355 85.123,279.178 86.522 M292.157 86.366 C 287.457 88.014,287.864 99.542,292.670 100.930 C 296.287 101.975,298.967 98.855,298.971 93.594 C 298.977 88.057,296.085 84.989,292.157 86.366 M303.733 86.436 C 299.041 88.568,299.740 99.908,304.630 101.002 C 307.831 101.718,309.997 99.623,310.580 95.249 C 311.416 88.965,307.960 84.516,303.733 86.436 M237.099 86.399 C 237.031 86.467,236.975 89.745,236.975 93.682 L 236.975 100.840 241.830 100.840 L 246.685 100.840 246.685 99.724 L 246.685 98.608 243.184 98.557 L 239.683 98.506 239.683 96.545 L 239.683 94.585 242.540 94.533 L 245.396 94.481 245.341 93.412 L 245.285 92.344 242.430 92.292 L 239.576 92.240 239.629 90.425 L 239.683 88.609 242.997 88.558 L 246.312 88.507 246.312 87.391 L 246.312 86.275 241.768 86.275 C 239.269 86.275,237.168 86.331,237.099 86.399 M314.012 86.691 C 313.895 87.211,312.979 93.546,312.979 93.838 C 312.979 93.980,313.598 94.044,314.907 94.036 C 318.093 94.017,319.398 95.234,318.499 97.388 C 317.871 98.891,315.851 99.297,313.025 98.489 C 312.623 98.374,312.605 98.416,312.605 99.493 L 312.605 100.616 313.492 100.813 C 315.279 101.209,315.557 101.227,316.796 101.029 C 322.897 100.054,323.102 92.580,317.045 91.962 L 315.790 91.834 315.905 90.688 C 316.114 88.614,315.962 88.721,318.807 88.661 L 321.289 88.609 321.289 87.488 L 321.289 86.368 317.698 86.317 L 314.108 86.266 314.012 86.691 M259.384 88.767 C 259.384 90.317,259.330 90.383,258.052 90.383 L 257.310 90.383 257.367 91.363 L 257.423 92.344 258.357 92.437 L 259.290 92.530 259.384 95.925 C 259.514 100.674,260.619 101.769,264.472 100.969 L 265.173 100.823 265.173 99.823 L 265.173 98.822 264.058 98.923 C 263.206 99.000,262.832 98.951,262.471 98.714 L 261.998 98.404 261.998 95.421 L 261.998 92.437 263.492 92.437 L 264.986 92.437 264.986 91.418 L 264.986 90.399 263.539 90.344 L 262.092 90.289 261.998 88.889 L 261.905 87.488 260.644 87.433 L 259.384 87.378 259.384 88.767 M295.268 88.873 C 297.258 91.056,296.284 98.973,294.025 98.973 C 292.272 98.973,291.618 97.500,291.614 93.546 C 291.610 88.840,293.285 86.698,295.268 88.873 M306.866 88.654 C 308.464 90.101,308.261 97.510,306.590 98.680 C 304.609 100.068,303.370 98.060,303.373 93.464 C 303.375 88.983,304.904 86.878,306.866 88.654 M250.700 90.490 C 247.483 92.163,248.233 95.628,252.007 96.533 C 253.313 96.846,253.782 97.189,253.782 97.835 C 253.782 98.903,252.173 99.225,249.206 98.752 C 248.772 98.683,248.547 100.103,248.921 100.553 C 249.331 101.048,251.916 101.260,253.406 100.921 C 257.521 99.986,257.421 95.282,253.272 94.591 C 252.368 94.441,251.291 93.783,251.204 93.329 C 251.014 92.344,253.116 91.961,255.519 92.544 L 256.044 92.671 255.986 91.667 C 255.931 90.705,255.902 90.654,255.275 90.440 C 254.290 90.104,251.381 90.135,250.700 90.490 M358.956 93.050 C 358.626 93.390,358.357 93.749,358.358 93.846 C 358.359 94.008,360.675 98.723,361.044 99.316 C 361.164 99.508,361.341 99.429,361.809 98.975 L 362.419 98.384 361.165 95.467 C 359.751 92.180,359.775 92.205,358.956 93.050 M344.164 96.012 C 330.618 108.556,316.687 116.005,294.842 122.386 C 284.552 125.391,272.880 127.807,260.037 129.590 C 257.778 129.904,255.341 130.243,254.622 130.345 C 252.224 130.683,242.059 131.751,239.496 131.935 C 238.674 131.994,237.120 132.123,236.041 132.222 C 220.690 133.632,196.455 133.632,181.046 132.221 C 180.019 132.127,178.422 131.997,177.498 131.930 C 176.573 131.864,173.254 131.517,170.121 131.159 C 166.989 130.801,163.291 130.390,161.905 130.247 C 137.131 127.675,107.459 119.376,87.341 109.392 L 81.778 106.632 80.525 107.263 C 78.328 108.368,76.926 108.712,74.079 108.844 L 71.502 108.964 72.212 109.333 C 72.603 109.536,73.637 110.083,74.510 110.549 C 75.383 111.014,76.853 111.744,77.778 112.172 C 81.458 113.872,82.314 114.260,83.660 114.832 C 84.430 115.160,85.229 115.503,85.434 115.596 C 87.662 116.594,96.232 119.962,100.280 121.429 C 104.751 123.050,112.901 125.615,118.207 127.072 C 119.594 127.453,121.106 127.877,121.569 128.016 C 129.798 130.482,149.255 134.338,161.158 135.861 C 166.369 136.528,171.668 137.072,180.205 137.818 C 192.629 138.903,217.001 138.903,229.318 137.818 C 230.500 137.714,232.516 137.545,233.800 137.442 C 237.952 137.109,246.219 136.246,247.246 136.038 C 247.502 135.986,248.721 135.816,249.953 135.661 C 254.478 135.091,260.098 134.197,264.986 133.271 C 268.098 132.681,278.174 130.604,279.178 130.345 C 279.538 130.252,280.588 130.000,281.513 129.785 C 282.437 129.570,284.034 129.178,285.061 128.914 C 286.088 128.651,287.432 128.323,288.049 128.187 C 296.215 126.375,310.695 120.586,319.701 115.532 C 328.767 110.444,338.297 103.182,343.363 97.500 C 345.546 95.051,345.888 94.416,344.164 96.012 M267.414 99.440 L 267.414 100.840 268.908 100.840 L 270.401 100.840 270.401 99.440 L 270.401 98.039 268.908 98.039 L 267.414 98.039 267.414 99.440 M362.405 100.455 C 361.725 101.207,361.719 101.228,361.986 101.868 C 362.523 103.153,362.510 103.149,363.286 102.354 C 364.066 101.555,364.100 101.009,363.427 100.125 L 363.095 99.691 362.405 100.455 M354.982 100.869 C 351.446 102.983,351.638 108.145,355.186 106.347 C 357.652 105.098,357.156 107.187,354.573 108.929 C 354.286 109.122,354.274 109.228,354.474 109.757 C 354.757 110.505,354.899 110.509,355.971 109.799 C 359.393 107.532,358.937 102.659,355.456 104.306 C 353.531 105.217,353.310 104.002,355.146 102.600 C 355.589 102.261,356.047 101.952,356.164 101.914 C 356.318 101.862,356.308 101.679,356.128 101.244 C 355.798 100.446,355.728 100.423,354.982 100.869 M347.643 104.952 L 347.001 105.517 347.393 106.445 L 347.785 107.373 347.306 107.888 C 346.857 108.371,346.843 108.441,347.084 109.010 C 347.382 109.717,347.530 109.755,347.997 109.239 C 348.433 108.757,348.500 108.832,349.480 110.911 C 350.737 113.577,351.239 113.868,352.720 112.795 C 353.955 111.901,354.191 111.423,353.800 110.605 L 353.481 109.935 352.744 110.654 C 351.853 111.525,351.837 111.514,350.769 109.286 L 349.988 107.656 350.717 106.949 C 351.521 106.171,351.614 105.756,351.119 105.145 L 350.791 104.740 350.244 105.311 C 349.525 106.061,349.290 106.032,348.833 105.135 C 348.377 104.242,348.441 104.252,347.643 104.952 M344.258 110.284 C 342.336 111.284,341.415 113.841,342.192 116.019 C 343.258 119.007,345.638 119.290,348.062 116.717 C 348.997 115.723,349.076 115.497,348.726 114.819 L 348.407 114.203 347.790 114.917 C 346.546 116.356,345.206 116.934,344.575 116.303 C 344.170 115.898,344.333 115.677,346.042 114.308 C 347.982 112.754,348.006 112.718,347.634 111.829 C 346.994 110.297,345.525 109.625,344.258 110.284 M345.551 112.217 C 345.864 112.563,345.838 112.605,344.799 113.420 C 343.689 114.292,343.417 114.347,343.417 113.702 C 343.417 112.358,344.805 111.392,345.551 112.217 M338.905 114.559 C 338.393 114.907,338.246 115.119,338.320 115.402 C 338.406 115.731,338.330 115.780,337.719 115.780 C 334.784 115.780,333.809 120.475,336.221 122.993 C 337.495 124.321,339.415 124.051,340.435 122.400 C 340.948 121.571,341.117 121.588,341.361 122.496 C 341.710 123.790,340.508 125.473,338.794 126.093 C 338.153 126.325,338.029 127.086,338.548 127.605 C 339.053 128.110,341.755 126.256,342.590 124.832 C 343.608 123.094,343.494 122.386,341.523 118.207 C 340.820 116.718,340.098 115.183,339.917 114.797 L 339.589 114.094 338.905 114.559 M339.548 118.490 C 340.392 120.195,340.402 120.441,339.663 121.282 C 338.652 122.434,337.639 122.076,336.861 120.293 C 335.631 117.473,338.194 115.754,339.548 118.490 M324.090 122.044 C 323.046 122.590,322.986 122.735,323.427 123.645 L 323.823 124.463 323.440 124.775 C 323.230 124.947,322.954 125.122,322.827 125.165 C 322.387 125.314,323.159 126.599,323.616 126.480 C 323.828 126.424,324.048 126.305,324.104 126.215 C 324.324 125.859,324.566 126.095,325.036 127.124 C 326.349 130.002,326.459 130.181,327.086 130.481 C 328.372 131.094,330.742 129.655,330.309 128.525 C 330.041 127.824,329.869 127.787,329.225 128.291 C 328.327 128.994,327.993 128.812,327.189 127.184 C 326.089 124.957,326.093 125.025,327.021 124.447 C 327.463 124.171,327.850 123.924,327.882 123.898 C 327.974 123.822,327.389 122.502,327.264 122.502 C 327.202 122.502,326.842 122.712,326.464 122.969 C 325.549 123.591,325.458 123.567,325.023 122.590 L 324.650 121.751 324.090 122.044 M319.283 122.931 C 318.491 123.398,318.456 123.536,318.895 124.457 C 319.263 125.228,319.298 125.235,320.269 124.739 C 321.139 124.296,321.112 124.407,320.598 123.348 C 320.124 122.373,320.192 122.395,319.283 122.931 M320.769 126.271 C 319.926 126.728,319.883 126.514,321.511 129.932 C 322.183 131.340,322.804 132.682,322.893 132.913 C 323.092 133.434,323.314 133.439,324.114 132.945 C 324.908 132.454,324.943 132.665,323.602 129.848 C 322.975 128.530,322.305 127.094,322.115 126.657 C 321.721 125.754,321.723 125.755,320.769 126.271 M310.924 131.228 C 308.921 131.928,308.035 133.393,308.765 134.803 C 309.250 135.742,309.538 135.854,311.464 135.854 C 314.032 135.854,314.040 136.948,311.478 137.724 C 310.255 138.094,310.263 138.084,310.598 138.804 C 310.918 139.493,311.637 139.464,313.159 138.701 C 316.510 137.020,315.701 133.341,312.143 134.079 C 310.880 134.342,310.364 134.208,310.364 133.618 C 310.364 133.147,311.357 132.554,312.558 132.308 C 313.227 132.170,313.266 132.078,312.949 131.381 C 312.694 130.823,312.195 130.785,310.924 131.228 M303.641 134.432 C 301.721 135.058,300.879 135.866,301.298 136.678 C 301.661 137.380,301.607 137.379,302.537 136.704 C 303.754 135.823,304.512 135.641,305.109 136.087 C 305.738 136.556,305.648 136.696,304.391 137.202 C 302.335 138.029,301.695 139.756,302.902 141.220 C 303.918 142.453,305.660 142.414,306.880 141.132 C 307.412 140.572,307.640 140.438,307.751 140.619 C 307.898 140.857,308.853 140.625,309.297 140.243 C 309.501 140.068,307.153 135.190,306.651 134.745 C 306.199 134.346,304.461 134.165,303.641 134.432 M306.600 138.666 C 306.961 139.458,306.152 140.430,305.131 140.430 C 303.778 140.430,303.919 138.958,305.326 138.397 C 306.076 138.098,306.369 138.160,306.600 138.666 M289.510 139.582 C 289.184 139.723,288.768 140.077,288.586 140.368 C 288.404 140.659,288.223 140.938,288.184 140.988 C 288.146 141.039,288.032 140.934,287.932 140.755 C 287.728 140.390,287.276 140.342,286.574 140.609 L 286.102 140.788 286.492 141.683 C 286.706 142.175,287.411 143.688,288.057 145.045 L 289.232 147.513 290.088 147.222 C 291.147 146.861,291.218 147.275,289.455 143.550 C 288.763 142.088,288.883 141.627,290.109 141.043 C 291.151 140.546,291.477 140.861,292.790 143.635 C 294.034 146.265,293.873 146.131,295.204 145.633 C 295.741 145.432,295.720 145.359,294.312 142.382 C 292.864 139.324,291.684 138.636,289.510 139.582 M274.194 139.878 C 272.418 140.229,271.841 141.248,272.445 142.966 L 272.793 143.956 272.251 144.075 C 271.632 144.211,271.598 144.343,271.988 145.096 C 272.233 145.570,272.343 145.623,272.898 145.533 C 273.604 145.418,273.358 145.047,275.232 149.056 L 275.990 150.679 276.697 150.570 C 277.786 150.403,277.909 150.227,277.499 149.426 C 277.073 148.593,275.444 145.087,275.444 145.004 C 275.444 144.971,275.760 144.891,276.148 144.825 C 277.278 144.634,277.414 144.490,277.123 143.788 L 276.875 143.189 275.795 143.312 C 274.735 143.432,274.709 143.424,274.425 142.875 C 273.891 141.842,274.343 141.176,275.578 141.176 C 276.265 141.176,276.316 141.028,275.906 140.233 C 275.606 139.654,275.470 139.626,274.194 139.878 M283.053 141.580 C 282.395 141.821,282.380 141.729,283.473 144.071 C 284.738 146.780,284.699 147.425,283.257 147.635 C 282.066 147.808,281.741 147.443,280.305 144.318 C 279.430 142.414,279.470 142.449,278.467 142.704 C 277.496 142.950,277.475 142.757,278.780 145.502 C 280.446 149.004,281.802 149.817,284.466 148.909 C 286.793 148.116,286.977 147.097,285.409 143.666 C 284.280 141.197,284.228 141.151,283.053 141.580 M251.584 144.113 L 250.974 144.188 251.024 148.892 L 251.074 153.595 252.101 153.595 L 253.128 153.595 253.128 152.531 C 253.128 151.168,253.162 151.144,255.309 151.001 L 257.116 150.881 258.110 152.021 L 259.104 153.160 260.016 153.056 C 261.265 152.915,261.266 152.908,260.027 151.589 C 256.194 147.506,252.673 143.982,252.452 144.007 C 252.310 144.024,251.920 144.071,251.584 144.113 M261.718 145.594 C 261.513 145.637,261.175 145.708,260.967 145.752 C 259.693 146.018,259.343 147.601,260.315 148.708 C 260.900 149.375,261.657 149.656,263.450 149.871 C 265.920 150.168,265.240 151.358,262.605 151.350 C 261.963 151.348,261.438 151.365,261.438 151.388 C 261.438 151.565,261.936 152.502,262.088 152.612 C 262.376 152.819,264.421 152.779,265.266 152.549 C 268.226 151.742,267.046 148.802,263.585 148.364 C 262.179 148.186,261.849 148.080,261.728 147.765 C 261.508 147.192,261.989 146.965,263.422 146.965 C 264.854 146.965,264.936 146.909,264.591 146.153 C 264.318 145.553,263.064 145.309,261.718 145.594 M254.428 148.051 C 255.698 149.396,255.650 149.572,254.015 149.577 L 253.035 149.580 253.035 148.164 C 253.035 146.519,252.985 146.523,254.428 148.051 " stroke="none" fill="#f4f4f4" fill-rule="evenodd"></path></g></svg>