<?xml version="1.0" encoding="iso-8859-1"?>
<!-- Generator: Adobe Illustrator 19.0.0, SVG Export Plug-In . SVG Version: 6.00 Build 0)  -->
<svg version="1.1" id="Capa_1" xmlns="http://www.w3.org/2000/svg" xmlns:xlink="http://www.w3.org/1999/xlink" x="0px" y="0px"
	 viewBox="0 0 480 480" style="enable-background:new 0 0 480 480;" xml:space="preserve">
<g>
	<g>
		<path d="M472,96h-48c-3.16,0-6.024,1.864-7.312,4.752L386.8,168H376V72c0-1.728-0.56-3.416-1.6-4.8l-48-64
			C324.888,1.184,322.52,0,320,0H192v0.176c-2.448,0-4.888,1.008-6.4,3.024l-48,64c-1.04,1.384-1.6,3.072-1.6,4.8v96h-24
			c-28.192,0-51.592,20.952-55.448,48.096C25.064,217.888,0,244.072,0,276c0,33.088,26.912,60,60,60h61.584l30.608,137.736
			C153,477.392,156.248,480,160,480h88c4.416,0,8-3.584,8-8v-48.808c18.232-3.72,32-19.872,32-39.192s-13.768-35.472-32-39.192V336
			h80c1.176,0,2.336-0.264,3.408-0.76l136-64c2.8-1.32,4.592-4.144,4.592-7.24v-88v-72C480,99.584,476.416,96,472,96z M316,16l36,48
			H244l-36-48H316z M360,80v88H248V80H360z M152,74.664l40-53.336l40,53.336V168h-16v-56c0-4.416-3.584-8-8-8h-32
			c-4.416,0-8,3.584-8,8v56h-16V74.664z M200,120v48h-16v-48H200z M240,424h-16v-88h16V424z M272,384
			c0,10.416-6.712,19.216-16,22.528V361.48C265.288,364.784,272,373.584,272,384z M464,258.92L334.208,320H248h-32
			c-4.416,0-8,3.584-8,8v104c0,4.416,3.584,8,8,8h24v24h-73.584l-30.608-137.736C135,322.608,131.752,320,128,320H60
			c-24.264,0-44-19.736-44-44c0-24.264,19.736-44,44-44h4c4.416,0,8-3.584,8-8c0-22.056,17.944-40,40-40h32h32h32h32h152h72V258.92z
			 M464,168h-59.688l24.888-56H464V168z"/>
	</g>
</g>
<g>
	<g>
		<rect x="272" y="104" width="16" height="16"/>
	</g>
</g>
<g>
	<g>
		<rect x="320" y="104" width="16" height="16"/>
	</g>
</g>
<g>
	<g>
		<rect x="112" y="216" width="16" height="16"/>
	</g>
</g>
<g>
	<g>
		<rect x="144" y="216" width="16" height="16"/>
	</g>
</g>
<g>
	<g>
		<rect x="176" y="216" width="16" height="16"/>
	</g>
</g>
<g>
	<g>
		<rect x="208" y="216" width="16" height="16"/>
	</g>
</g>
<g>
	<g>
		<rect x="240" y="216" width="16" height="16"/>
	</g>
</g>
<g>
	<g>
		<rect x="272" y="216" width="16" height="16"/>
	</g>
</g>
<g>
	<g>
		<rect x="304" y="216" width="16" height="16"/>
	</g>
</g>
<g>
	<g>
		<rect x="336" y="216" width="16" height="16"/>
	</g>
</g>
<g>
	<g>
		<rect x="368" y="216" width="16" height="16"/>
	</g>
</g>
<g>
	<g>
		<rect x="400" y="216" width="16" height="16"/>
	</g>
</g>
<g>
	<g>
		<rect x="312" y="352" width="88" height="16"/>
	</g>
</g>
<g>
	<g>
		<rect x="416" y="352" width="16" height="16"/>
	</g>
</g>
<g>
	<g>
		<rect x="448" y="352" width="16" height="16"/>
	</g>
</g>
<g>
	<g>
		<rect x="288" y="424" width="88" height="16"/>
	</g>
</g>
<g>
	<g>
		<rect x="392" y="424" width="16" height="16"/>
	</g>
</g>
<g>
	<g>
		<rect x="424" y="424" width="16" height="16"/>
	</g>
</g>
<g>
	<g>
		<rect x="328" y="392" width="88" height="16"/>
	</g>
</g>
<g>
	<g>
		<rect x="432" y="392" width="16" height="16"/>
	</g>
</g>
<g>
	<g>
		<rect x="464" y="392" width="16" height="16"/>
	</g>
</g>
<g>
</g>
<g>
</g>
<g>
</g>
<g>
</g>
<g>
</g>
<g>
</g>
<g>
</g>
<g>
</g>
<g>
</g>
<g>
</g>
<g>
</g>
<g>
</g>
<g>
</g>
<g>
</g>
<g>
</g>
</svg>
